<svg width="24" height="44" viewBox="0 0 24 44" fill="none" xmlns="http://www.w3.org/2000/svg">
<path d="M10.9998 14H3.99986C3.46943 14 2.96073 14.2107 2.58566 14.5858C2.21059 14.9609 1.99988 15.4696 1.99988 16V29.9999C1.99988 30.5303 2.21059 31.039 2.58566 31.4141C2.96073 31.7891 3.46943 31.9998 3.99986 31.9998H17.9997C18.5302 31.9998 19.0389 31.7891 19.4139 31.4141C19.789 31.039 19.9997 30.5303 19.9997 29.9999V22.9999" stroke="#3D3D3D" stroke-width="1.66678" stroke-linecap="round" stroke-linejoin="round"/>
<path d="M18.4998 12.4995C18.8976 12.1017 19.4371 11.8782 19.9998 11.8782C20.5624 11.8782 21.1019 12.1017 21.4998 12.4995C21.8976 12.8973 22.1211 13.4369 22.1211 13.9995C22.1211 14.5621 21.8976 15.1017 21.4998 15.4995L11.9998 24.9995L7.99976 25.9995L8.99976 21.9995L18.4998 12.4995Z" stroke="#3D3D3D" stroke-width="1.66678" stroke-linecap="round" stroke-linejoin="round"/>
</svg>
